%TF.GenerationSoftware,KiCad,Pcbnew,8.0.2*%
%TF.CreationDate,2024-10-13T16:43:00-05:00*%
%TF.ProjectId,Axis_MCU_V3,41786973-5f4d-4435-955f-56332e6b6963,rev?*%
%TF.SameCoordinates,Original*%
%TF.FileFunction,Soldermask,Bot*%
%TF.FilePolarity,Negative*%
%FSLAX46Y46*%
G04 Gerber Fmt 4.6, Leading zero omitted, Abs format (unit mm)*
G04 Created by KiCad (PCBNEW 8.0.2) date 2024-10-13 16:43:00*
%MOMM*%
%LPD*%
G01*
G04 APERTURE LIST*
G04 Aperture macros list*
%AMRoundRect*
0 Rectangle with rounded corners*
0 $1 Rounding radius*
0 $2 $3 $4 $5 $6 $7 $8 $9 X,Y pos of 4 corners*
0 Add a 4 corners polygon primitive as box body*
4,1,4,$2,$3,$4,$5,$6,$7,$8,$9,$2,$3,0*
0 Add four circle primitives for the rounded corners*
1,1,$1+$1,$2,$3*
1,1,$1+$1,$4,$5*
1,1,$1+$1,$6,$7*
1,1,$1+$1,$8,$9*
0 Add four rect primitives between the rounded corners*
20,1,$1+$1,$2,$3,$4,$5,0*
20,1,$1+$1,$4,$5,$6,$7,0*
20,1,$1+$1,$6,$7,$8,$9,0*
20,1,$1+$1,$8,$9,$2,$3,0*%
G04 Aperture macros list end*
%ADD10O,1.700000X1.700000*%
%ADD11R,1.700000X1.700000*%
%ADD12O,1.800000X1.800000*%
%ADD13O,1.500000X1.500000*%
%ADD14C,2.600000*%
%ADD15R,2.600000X2.600000*%
%ADD16RoundRect,0.250000X-0.600000X0.600000X-0.600000X-0.600000X0.600000X-0.600000X0.600000X0.600000X0*%
%ADD17C,1.700000*%
%ADD18C,2.700000*%
G04 APERTURE END LIST*
D10*
%TO.C,U1*%
X102540000Y-80900000D03*
D11*
X100000000Y-80900000D03*
D10*
X97460000Y-80900000D03*
X108890000Y-32870000D03*
X108890000Y-35410000D03*
D11*
X108890000Y-37950000D03*
D10*
X108890000Y-40490000D03*
X108890000Y-43030000D03*
X108890000Y-45570000D03*
X108890000Y-48110000D03*
D11*
X108890000Y-50650000D03*
D10*
X108890000Y-53190000D03*
X108890000Y-55730000D03*
X108890000Y-58270000D03*
X108890000Y-60810000D03*
D11*
X108890000Y-63350000D03*
D10*
X108890000Y-65890000D03*
X108890000Y-68430000D03*
X108890000Y-70970000D03*
X108890000Y-73510000D03*
D11*
X108890000Y-76050000D03*
D10*
X108890000Y-78590000D03*
X108890000Y-81130000D03*
X91110000Y-81130000D03*
X91110000Y-78590000D03*
D11*
X91110000Y-76050000D03*
D10*
X91110000Y-73510000D03*
X91110000Y-70970000D03*
X91110000Y-68430000D03*
X91110000Y-65890000D03*
D11*
X91110000Y-63350000D03*
D10*
X91110000Y-60810000D03*
X91110000Y-58270000D03*
X91110000Y-55730000D03*
X91110000Y-53190000D03*
D11*
X91110000Y-50650000D03*
D10*
X91110000Y-48110000D03*
X91110000Y-45570000D03*
X91110000Y-43030000D03*
X91110000Y-40490000D03*
D11*
X91110000Y-37950000D03*
D10*
X91110000Y-35410000D03*
X91110000Y-32870000D03*
D12*
X102725000Y-33000000D03*
D13*
X102425000Y-36030000D03*
X97575000Y-36030000D03*
D12*
X97275000Y-33000000D03*
%TD*%
D14*
%TO.C,J3*%
X143000000Y-61020000D03*
X143000000Y-55940000D03*
X143000000Y-50860000D03*
D15*
X143000000Y-45780000D03*
%TD*%
D14*
%TO.C,J2*%
X69495000Y-77780000D03*
X69495000Y-72700000D03*
X69495000Y-67620000D03*
X69495000Y-62540000D03*
X69495000Y-57460000D03*
X69495000Y-52380000D03*
X69495000Y-47300000D03*
D15*
X69495000Y-42220000D03*
%TD*%
D10*
%TO.C,J8*%
X130350000Y-46000000D03*
X127810000Y-46000000D03*
X125270000Y-46000000D03*
X122730000Y-46000000D03*
X120190000Y-46000000D03*
D11*
X117650000Y-46000000D03*
%TD*%
D16*
%TO.C,J10*%
X127810000Y-35200000D03*
D17*
X127810000Y-37740000D03*
X125270000Y-35200000D03*
X125270000Y-37740000D03*
X122730000Y-35200000D03*
X122730000Y-37740000D03*
X120190000Y-35200000D03*
X120190000Y-37740000D03*
%TD*%
D18*
%TO.C,H4*%
X145000000Y-35000000D03*
%TD*%
%TO.C,H2*%
X65000000Y-85000000D03*
%TD*%
D14*
%TO.C,J5*%
X143000000Y-69465000D03*
D15*
X143000000Y-74545000D03*
%TD*%
D18*
%TO.C,H3*%
X145000000Y-85000000D03*
%TD*%
D10*
%TO.C,J9*%
X85600000Y-56200000D03*
X85600000Y-53660000D03*
X85600000Y-51120000D03*
X85600000Y-48580000D03*
X85600000Y-46040000D03*
X85600000Y-43500000D03*
X85600000Y-40960000D03*
D11*
X85600000Y-38420000D03*
%TD*%
D18*
%TO.C,H1*%
X65000000Y-35000000D03*
%TD*%
D10*
%TO.C,J7*%
X85600000Y-74160000D03*
X85600000Y-71620000D03*
X85600000Y-69080000D03*
X85600000Y-66540000D03*
X85600000Y-64000000D03*
D11*
X85600000Y-61460000D03*
%TD*%
M02*
