%TF.GenerationSoftware,KiCad,Pcbnew,8.0.2*%
%TF.CreationDate,2024-09-15T12:36:31-05:00*%
%TF.ProjectId,Axis_MCU_V3,41786973-5f4d-4435-955f-56332e6b6963,rev?*%
%TF.SameCoordinates,Original*%
%TF.FileFunction,Copper,L4,Bot*%
%TF.FilePolarity,Positive*%
%FSLAX46Y46*%
G04 Gerber Fmt 4.6, Leading zero omitted, Abs format (unit mm)*
G04 Created by KiCad (PCBNEW 8.0.2) date 2024-09-15 12:36:31*
%MOMM*%
%LPD*%
G01*
G04 APERTURE LIST*
G04 Aperture macros list*
%AMRoundRect*
0 Rectangle with rounded corners*
0 $1 Rounding radius*
0 $2 $3 $4 $5 $6 $7 $8 $9 X,Y pos of 4 corners*
0 Add a 4 corners polygon primitive as box body*
4,1,4,$2,$3,$4,$5,$6,$7,$8,$9,$2,$3,0*
0 Add four circle primitives for the rounded corners*
1,1,$1+$1,$2,$3*
1,1,$1+$1,$4,$5*
1,1,$1+$1,$6,$7*
1,1,$1+$1,$8,$9*
0 Add four rect primitives between the rounded corners*
20,1,$1+$1,$2,$3,$4,$5,0*
20,1,$1+$1,$4,$5,$6,$7,0*
20,1,$1+$1,$6,$7,$8,$9,0*
20,1,$1+$1,$8,$9,$2,$3,0*%
G04 Aperture macros list end*
%TA.AperFunction,ComponentPad*%
%ADD10O,1.700000X1.700000*%
%TD*%
%TA.AperFunction,ComponentPad*%
%ADD11R,1.700000X1.700000*%
%TD*%
%TA.AperFunction,ComponentPad*%
%ADD12R,2.600000X2.600000*%
%TD*%
%TA.AperFunction,ComponentPad*%
%ADD13C,2.600000*%
%TD*%
%TA.AperFunction,ComponentPad*%
%ADD14RoundRect,0.250000X-0.600000X0.600000X-0.600000X-0.600000X0.600000X-0.600000X0.600000X0.600000X0*%
%TD*%
%TA.AperFunction,ComponentPad*%
%ADD15C,1.700000*%
%TD*%
%TA.AperFunction,ViaPad*%
%ADD16C,0.800000*%
%TD*%
%TA.AperFunction,ViaPad*%
%ADD17C,1.000000*%
%TD*%
%TA.AperFunction,Conductor*%
%ADD18C,0.500000*%
%TD*%
%TA.AperFunction,Conductor*%
%ADD19C,0.300000*%
%TD*%
G04 APERTURE END LIST*
D10*
%TO.P,U1,1,GPIO0*%
%TO.N,/UART_TX*%
X91110000Y-32870000D03*
%TO.P,U1,2,GPIO1*%
%TO.N,/UART_RX*%
X91110000Y-35410000D03*
D11*
%TO.P,U1,3,GND*%
%TO.N,GND*%
X91110000Y-37950000D03*
D10*
%TO.P,U1,4,GPIO2*%
%TO.N,/GPIO2*%
X91110000Y-40490000D03*
%TO.P,U1,5,GPIO3*%
%TO.N,/GPIO3*%
X91110000Y-43030000D03*
%TO.P,U1,6,GPIO4*%
%TO.N,/GPIO4*%
X91110000Y-45570000D03*
%TO.P,U1,7,GPIO5*%
%TO.N,/GPIO5*%
X91110000Y-48110000D03*
D11*
%TO.P,U1,8,GND*%
%TO.N,GND*%
X91110000Y-50650000D03*
D10*
%TO.P,U1,9,GPIO6*%
%TO.N,/GPIO6*%
X91110000Y-53190000D03*
%TO.P,U1,10,GPIO7*%
%TO.N,/GPIO7*%
X91110000Y-55730000D03*
%TO.P,U1,11,GPIO8*%
%TO.N,/SPI1_RX*%
X91110000Y-58270000D03*
%TO.P,U1,12,GPIO9*%
%TO.N,/~{SPI1_CS0}*%
X91110000Y-60810000D03*
D11*
%TO.P,U1,13,GND*%
%TO.N,GND*%
X91110000Y-63350000D03*
D10*
%TO.P,U1,14,GPIO10*%
%TO.N,/SPI1_SCK*%
X91110000Y-65890000D03*
%TO.P,U1,15,GPIO11*%
%TO.N,/SPI1_TX*%
X91110000Y-68430000D03*
%TO.P,U1,16,GPIO12*%
%TO.N,/I2C0_SDA*%
X91110000Y-70970000D03*
%TO.P,U1,17,GPIO13*%
%TO.N,/I2C0_SCL*%
X91110000Y-73510000D03*
D11*
%TO.P,U1,18,GND*%
%TO.N,GND*%
X91110000Y-76050000D03*
D10*
%TO.P,U1,19,GPIO14*%
%TO.N,/~{IO_INT}*%
X91110000Y-78590000D03*
%TO.P,U1,20,GPIO15*%
%TO.N,/~{SPI0_CS1}*%
X91110000Y-81130000D03*
%TO.P,U1,21,GPIO16*%
%TO.N,/SPI0_RX*%
X108890000Y-81130000D03*
%TO.P,U1,22,GPIO17*%
%TO.N,/~{SPI0_CS0}*%
X108890000Y-78590000D03*
D11*
%TO.P,U1,23,GND*%
%TO.N,GND*%
X108890000Y-76050000D03*
D10*
%TO.P,U1,24,GPIO18*%
%TO.N,/SPI0_SCK*%
X108890000Y-73510000D03*
%TO.P,U1,25,GPIO19*%
%TO.N,unconnected-(U1-GPIO19-Pad25)*%
X108890000Y-70970000D03*
%TO.P,U1,26,GPIO20*%
%TO.N,/I2C1_SDA*%
X108890000Y-68430000D03*
%TO.P,U1,27,GPIO21*%
%TO.N,/I2C1_SCL*%
X108890000Y-65890000D03*
D11*
%TO.P,U1,28,GND*%
%TO.N,GND*%
X108890000Y-63350000D03*
D10*
%TO.P,U1,29,GPIO22*%
%TO.N,/~{MUX_INT}*%
X108890000Y-60810000D03*
%TO.P,U1,30,RUN*%
%TO.N,Net-(U1-RUN)*%
X108890000Y-58270000D03*
%TO.P,U1,31,GPIO26_ADC0*%
%TO.N,/HV_IO1*%
X108890000Y-55730000D03*
%TO.P,U1,32,GPIO27_ADC1*%
%TO.N,/ZC_SIG*%
X108890000Y-53190000D03*
D11*
%TO.P,U1,33,AGND*%
%TO.N,unconnected-(U1-AGND-Pad33)_0*%
X108890000Y-50650000D03*
D10*
%TO.P,U1,34,GPIO28_ADC2*%
%TO.N,/HV_IO2*%
X108890000Y-48110000D03*
%TO.P,U1,35,ADC_VREF*%
%TO.N,unconnected-(U1-ADC_VREF-Pad35)_0*%
X108890000Y-45570000D03*
%TO.P,U1,36,3V3_OUT*%
%TO.N,+3V3*%
X108890000Y-43030000D03*
%TO.P,U1,37,3V3_EN*%
%TO.N,unconnected-(U1-3V3_EN-Pad37)*%
X108890000Y-40490000D03*
D11*
%TO.P,U1,38,GND*%
%TO.N,GND*%
X108890000Y-37950000D03*
D10*
%TO.P,U1,39,VSYS*%
%TO.N,unconnected-(U1-VSYS-Pad39)*%
X108890000Y-35410000D03*
%TO.P,U1,40,VBUS*%
%TO.N,+5V*%
X108890000Y-32870000D03*
%TO.P,U1,41,SWCLK*%
%TO.N,/SWCLK*%
X97460000Y-80900000D03*
D11*
%TO.P,U1,42,GND*%
%TO.N,GND*%
X100000000Y-80900000D03*
D10*
%TO.P,U1,43,SWDIO*%
%TO.N,/SWDIO*%
X102540000Y-80900000D03*
%TD*%
D12*
%TO.P,J3,1,Pin_1*%
%TO.N,+5V*%
X143000000Y-45780000D03*
D13*
%TO.P,J3,2,Pin_2*%
%TO.N,/ADC_0*%
X143000000Y-50860000D03*
%TO.P,J3,3,Pin_3*%
%TO.N,/ADC_1*%
X143000000Y-55940000D03*
%TO.P,J3,4,Pin_4*%
%TO.N,GND*%
X143000000Y-61020000D03*
%TD*%
D12*
%TO.P,J2,1,Pin_1*%
%TO.N,+3V3*%
X69495000Y-42220000D03*
D13*
%TO.P,J2,2,Pin_2*%
%TO.N,/IO_1*%
X69495000Y-47300000D03*
%TO.P,J2,3,Pin_3*%
%TO.N,/IO_2*%
X69495000Y-52380000D03*
%TO.P,J2,4,Pin_4*%
%TO.N,/IO_3*%
X69495000Y-57460000D03*
%TO.P,J2,5,Pin_5*%
%TO.N,/IO_4*%
X69495000Y-62540000D03*
%TO.P,J2,6,Pin_6*%
%TO.N,/IO_5*%
X69495000Y-67620000D03*
%TO.P,J2,7,Pin_7*%
%TO.N,/IO_6*%
X69495000Y-72700000D03*
%TO.P,J2,8,Pin_8*%
%TO.N,GND*%
X69495000Y-77780000D03*
%TD*%
D11*
%TO.P,J8,1,Pin_1*%
%TO.N,+5V*%
X117650000Y-46000000D03*
D10*
%TO.P,J8,2,Pin_2*%
%TO.N,+3V3*%
X120190000Y-46000000D03*
%TO.P,J8,3,Pin_3*%
%TO.N,/EXT_SDA*%
X122730000Y-46000000D03*
%TO.P,J8,4,Pin_4*%
%TO.N,/EXT_SCL*%
X125270000Y-46000000D03*
%TO.P,J8,5,Pin_5*%
%TO.N,/~{EXT_INT}*%
X127810000Y-46000000D03*
%TO.P,J8,6,Pin_6*%
%TO.N,GND*%
X130350000Y-46000000D03*
%TD*%
D14*
%TO.P,J10,1,Pin_1*%
%TO.N,+5V*%
X127810000Y-35200000D03*
D15*
%TO.P,J10,2,Pin_2*%
%TO.N,+3V3*%
X127810000Y-37740000D03*
%TO.P,J10,3,Pin_3*%
%TO.N,/HV_IO1*%
X125270000Y-35200000D03*
%TO.P,J10,4,Pin_4*%
%TO.N,/ZC_SIG*%
X125270000Y-37740000D03*
%TO.P,J10,5,Pin_5*%
%TO.N,/HV_SDA*%
X122730000Y-35200000D03*
%TO.P,J10,6,Pin_6*%
%TO.N,/HV_SCL*%
X122730000Y-37740000D03*
%TO.P,J10,7,Pin_7*%
%TO.N,/HV_IO2*%
X120190000Y-35200000D03*
%TO.P,J10,8,Pin_8*%
%TO.N,GND*%
X120190000Y-37740000D03*
%TD*%
D12*
%TO.P,J5,1,Pin_1*%
%TO.N,/THCPL1_POS*%
X143000000Y-74545000D03*
D13*
%TO.P,J5,2,Pin_2*%
%TO.N,/THCPL1_NEG*%
X143000000Y-69465000D03*
%TD*%
D11*
%TO.P,J9,1,Pin_1*%
%TO.N,+3V3*%
X85600000Y-38420000D03*
D10*
%TO.P,J9,2,Pin_2*%
%TO.N,/GPIO2*%
X85600000Y-40960000D03*
%TO.P,J9,3,Pin_3*%
%TO.N,/GPIO3*%
X85600000Y-43500000D03*
%TO.P,J9,4,Pin_4*%
%TO.N,/GPIO4*%
X85600000Y-46040000D03*
%TO.P,J9,5,Pin_5*%
%TO.N,/GPIO5*%
X85600000Y-48580000D03*
%TO.P,J9,6,Pin_6*%
%TO.N,/GPIO6*%
X85600000Y-51120000D03*
%TO.P,J9,7,Pin_7*%
%TO.N,/GPIO7*%
X85600000Y-53660000D03*
%TO.P,J9,8,Pin_8*%
%TO.N,GND*%
X85600000Y-56200000D03*
%TD*%
D11*
%TO.P,J7,1,Pin_1*%
%TO.N,+3V3*%
X85600000Y-61460000D03*
D10*
%TO.P,J7,2,Pin_2*%
%TO.N,/SPI1_RX*%
X85600000Y-64000000D03*
%TO.P,J7,3,Pin_3*%
%TO.N,/~{SPI1_CS0}*%
X85600000Y-66540000D03*
%TO.P,J7,4,Pin_4*%
%TO.N,/SPI1_SCK*%
X85600000Y-69080000D03*
%TO.P,J7,5,Pin_5*%
%TO.N,/SPI1_TX*%
X85600000Y-71620000D03*
%TO.P,J7,6,Pin_6*%
%TO.N,GND*%
X85600000Y-74160000D03*
%TD*%
D16*
%TO.N,GND*%
X142000000Y-65000000D03*
X140000000Y-80000000D03*
X145000000Y-61000000D03*
X119200000Y-55000000D03*
X145000000Y-57000000D03*
X133000000Y-59000000D03*
X135000000Y-59000000D03*
X137400000Y-79600000D03*
X78525000Y-77235000D03*
X140000000Y-69000000D03*
X124800000Y-74200000D03*
X144000000Y-65000000D03*
X139000000Y-57000000D03*
X133000000Y-78000000D03*
X131400000Y-55600000D03*
X128000000Y-62000000D03*
X78600000Y-37400000D03*
X137000000Y-53000000D03*
X145000000Y-51000000D03*
X135000000Y-55000000D03*
X83800000Y-80000000D03*
X128600000Y-59000000D03*
X117400000Y-59400000D03*
X128600000Y-63000000D03*
X128800000Y-66800000D03*
X133800000Y-72200000D03*
X139000000Y-61000000D03*
X82800000Y-62800000D03*
X75400000Y-82600000D03*
X139000000Y-51000000D03*
X111000000Y-87000000D03*
X140000000Y-75000000D03*
X132000000Y-50800000D03*
X117200000Y-55000000D03*
X126600000Y-52680000D03*
X124800000Y-66400000D03*
X137000000Y-59000000D03*
X133000000Y-63000000D03*
X137000000Y-63000000D03*
X140000000Y-65000000D03*
X131400000Y-74200000D03*
X76600000Y-61200000D03*
X135000000Y-63000000D03*
X133600000Y-53000000D03*
D17*
%TO.N,+3V3*%
X126400000Y-65000000D03*
D16*
X119200000Y-74200000D03*
D17*
X82200000Y-77200000D03*
X135275000Y-74075000D03*
X84800000Y-84400000D03*
X129800000Y-72200000D03*
D16*
X126600000Y-56000000D03*
D17*
X121400000Y-64600000D03*
X82800000Y-68400000D03*
X116400000Y-79000000D03*
X114400000Y-75600000D03*
X114000000Y-69400000D03*
X79800000Y-72400000D03*
X127800000Y-68200000D03*
X112400000Y-71600000D03*
X112600000Y-64600000D03*
X120800000Y-76800000D03*
X117200000Y-58000000D03*
D16*
%TO.N,/4.5V_VREF*%
X126600000Y-60600000D03*
X128800000Y-54200000D03*
%TO.N,/UART_RX*%
X87400000Y-35400000D03*
X84800000Y-34800000D03*
%TO.N,/THCPL1_NEG*%
X138800000Y-76000000D03*
X138800000Y-77800000D03*
%TO.N,/EXT_SCL*%
X112600000Y-68400000D03*
%TO.N,/I2C0_SDA*%
X87610331Y-76410331D03*
X87600000Y-74200000D03*
%TO.N,/EXT_SDA*%
X113800000Y-67600000D03*
%TO.N,/~{EXT_INT}*%
X119200000Y-66000000D03*
%TO.N,/I2C1_SDA*%
X119600000Y-78000000D03*
X104600000Y-68430000D03*
%TO.N,/I2C1_SCL*%
X105600000Y-65890000D03*
X118000000Y-78000000D03*
%TO.N,/ZC_SIG*%
X113400000Y-53400000D03*
X115400000Y-52800000D03*
%TO.N,/HV_SCL*%
X122200000Y-40200000D03*
X113000000Y-74400000D03*
X119000000Y-40200000D03*
%TO.N,/HV_SDA*%
X113400000Y-72800000D03*
%TO.N,/~{IO_INT}*%
X78800000Y-70200000D03*
%TO.N,/~{MUX_INT}*%
X114400000Y-78000000D03*
%TO.N,/TIMER_SDA*%
X128200000Y-71490000D03*
X128600000Y-69600000D03*
%TD*%
D18*
%TO.N,+5V*%
X127200000Y-43800000D02*
X130600000Y-40400000D01*
X142295000Y-45780000D02*
X139180000Y-45780000D01*
X139180000Y-45780000D02*
X133800000Y-40400000D01*
X130600000Y-40400000D02*
X130600000Y-37990000D01*
X123810000Y-31200000D02*
X116800000Y-31200000D01*
X133800000Y-40400000D02*
X130600000Y-40400000D01*
X119200000Y-43800000D02*
X117650000Y-45350000D01*
X116800000Y-31200000D02*
X115130000Y-32870000D01*
X117650000Y-45350000D02*
X117650000Y-46000000D01*
X127810000Y-35200000D02*
X123810000Y-31200000D01*
X115130000Y-32870000D02*
X108890000Y-32870000D01*
X130600000Y-37990000D02*
X127810000Y-35200000D01*
X119200000Y-43800000D02*
X127200000Y-43800000D01*
D19*
%TO.N,/4.5V_VREF*%
X128800000Y-54200000D02*
X128800000Y-57600000D01*
X128800000Y-57600000D02*
X127850000Y-58550000D01*
X127400000Y-60600000D02*
X126600000Y-60600000D01*
X127850000Y-60150000D02*
X127400000Y-60600000D01*
X127850000Y-58550000D02*
X127850000Y-60150000D01*
%TO.N,/UART_RX*%
X87400000Y-35400000D02*
X86800000Y-34800000D01*
X86800000Y-34800000D02*
X84800000Y-34800000D01*
%TO.N,/THCPL1_NEG*%
X138800000Y-76000000D02*
X138800000Y-77800000D01*
%TO.N,/EXT_SCL*%
X125270000Y-57930000D02*
X125270000Y-46000000D01*
X114800000Y-68400000D02*
X125270000Y-57930000D01*
X112600000Y-68400000D02*
X114800000Y-68400000D01*
%TO.N,/I2C0_SDA*%
X87600000Y-74200000D02*
X87600000Y-76400000D01*
X87600000Y-76400000D02*
X87610331Y-76410331D01*
%TO.N,/EXT_SDA*%
X120800000Y-47930000D02*
X122730000Y-46000000D01*
X113800000Y-67600000D02*
X114200000Y-67600000D01*
X120800000Y-61000000D02*
X120800000Y-47930000D01*
X114200000Y-67600000D02*
X120800000Y-61000000D01*
%TO.N,/~{EXT_INT}*%
X127810000Y-56790000D02*
X127810000Y-46000000D01*
X119200000Y-65400000D02*
X127810000Y-56790000D01*
X119200000Y-66000000D02*
X119200000Y-65400000D01*
%TO.N,/I2C1_SDA*%
X104600000Y-68430000D02*
X104600000Y-82400000D01*
X107600000Y-85400000D02*
X119000000Y-85400000D01*
X104600000Y-82400000D02*
X107600000Y-85400000D01*
X119000000Y-85400000D02*
X119600000Y-84800000D01*
X119600000Y-84800000D02*
X119600000Y-78000000D01*
%TO.N,/I2C1_SCL*%
X107600000Y-83200000D02*
X117600000Y-83200000D01*
X105600000Y-65890000D02*
X105600000Y-81200000D01*
X118000000Y-82800000D02*
X118000000Y-78000000D01*
X117600000Y-83200000D02*
X118000000Y-82800000D01*
X105600000Y-81200000D02*
X107600000Y-83200000D01*
%TO.N,/ZC_SIG*%
X115400000Y-52800000D02*
X114000000Y-52800000D01*
X114000000Y-52800000D02*
X113400000Y-53400000D01*
%TO.N,/HV_SCL*%
X110600000Y-72200000D02*
X110600000Y-54800000D01*
X122200000Y-40200000D02*
X122730000Y-39670000D01*
X112800000Y-74400000D02*
X110600000Y-72200000D01*
X122730000Y-39670000D02*
X122730000Y-37740000D01*
X116800000Y-40200000D02*
X119000000Y-40200000D01*
X113000000Y-74400000D02*
X112800000Y-74400000D01*
X110600000Y-54800000D02*
X113600000Y-51800000D01*
X113600000Y-43400000D02*
X116800000Y-40200000D01*
X113600000Y-51800000D02*
X113600000Y-43400000D01*
%TO.N,/HV_SDA*%
X116200000Y-63400000D02*
X116200000Y-44400000D01*
X113400000Y-71200000D02*
X111600000Y-69400000D01*
X121472877Y-36457123D02*
X122730000Y-35200000D01*
X111600000Y-68000000D02*
X116200000Y-63400000D01*
X116200000Y-44400000D02*
X121472877Y-39127123D01*
X121472877Y-39127123D02*
X121472877Y-36457123D01*
X113400000Y-72800000D02*
X113400000Y-71200000D01*
X111600000Y-69400000D02*
X111600000Y-68000000D01*
%TO.N,/~{IO_INT}*%
X78400000Y-73400000D02*
X81000000Y-76000000D01*
X87190000Y-78590000D02*
X91110000Y-78590000D01*
X78800000Y-70200000D02*
X78400000Y-70600000D01*
X84600000Y-76000000D02*
X87190000Y-78590000D01*
X78400000Y-70600000D02*
X78400000Y-73400000D01*
X81000000Y-76000000D02*
X84600000Y-76000000D01*
%TO.N,/~{MUX_INT}*%
X106600000Y-66600000D02*
X106600000Y-76600000D01*
X107800000Y-77400000D02*
X107810000Y-77390000D01*
X107400000Y-77400000D02*
X107800000Y-77400000D01*
X113790000Y-77390000D02*
X114400000Y-78000000D01*
X106600000Y-76600000D02*
X107400000Y-77400000D01*
X106600000Y-63100000D02*
X106600000Y-66600000D01*
X107810000Y-77390000D02*
X113790000Y-77390000D01*
X108890000Y-60810000D02*
X106600000Y-63100000D01*
%TO.N,/TIMER_SDA*%
X128600000Y-71090000D02*
X128600000Y-69600000D01*
X128200000Y-71490000D02*
X128600000Y-71090000D01*
%TD*%
%TA.AperFunction,Conductor*%
%TO.N,GND*%
G36*
X144015677Y-48019685D02*
G01*
X144036319Y-48036319D01*
X145963681Y-49963681D01*
X145997166Y-50025004D01*
X146000000Y-50051362D01*
X146000000Y-75948638D01*
X145980315Y-76015677D01*
X145963681Y-76036319D01*
X141036319Y-80963681D01*
X140974996Y-80997166D01*
X140948638Y-81000000D01*
X139000000Y-81000000D01*
X135000000Y-81000000D01*
X132124000Y-81000000D01*
X132056961Y-80980315D01*
X132011206Y-80927511D01*
X132000000Y-80876000D01*
X132000000Y-77051362D01*
X132019685Y-76984323D01*
X132036319Y-76963681D01*
X132963681Y-76036319D01*
X133025004Y-76002834D01*
X133051362Y-76000000D01*
X137000000Y-76000000D01*
X137000002Y-75999998D01*
X138194318Y-75999998D01*
X138194318Y-76000000D01*
X138214955Y-76156760D01*
X138214956Y-76156762D01*
X138275464Y-76302841D01*
X138371718Y-76428282D01*
X138400987Y-76450740D01*
X138442189Y-76507165D01*
X138449500Y-76549115D01*
X138449500Y-77250883D01*
X138429815Y-77317922D01*
X138400987Y-77349258D01*
X138371721Y-77371714D01*
X138275463Y-77497160D01*
X138214956Y-77643237D01*
X138214955Y-77643239D01*
X138194318Y-77799998D01*
X138194318Y-77800001D01*
X138214955Y-77956760D01*
X138214956Y-77956762D01*
X138275464Y-78102841D01*
X138371718Y-78228282D01*
X138497159Y-78324536D01*
X138643238Y-78385044D01*
X138721619Y-78395363D01*
X138799999Y-78405682D01*
X138800000Y-78405682D01*
X138800001Y-78405682D01*
X138852254Y-78398802D01*
X138956762Y-78385044D01*
X139102841Y-78324536D01*
X139228282Y-78228282D01*
X139324536Y-78102841D01*
X139385044Y-77956762D01*
X139405682Y-77800000D01*
X139385044Y-77643238D01*
X139324536Y-77497159D01*
X139228282Y-77371718D01*
X139228279Y-77371716D01*
X139228278Y-77371714D01*
X139199013Y-77349258D01*
X139157811Y-77292830D01*
X139150500Y-77250883D01*
X139150500Y-76549115D01*
X139170185Y-76482076D01*
X139199011Y-76450742D01*
X139228282Y-76428282D01*
X139324536Y-76302841D01*
X139385044Y-76156762D01*
X139405682Y-76000000D01*
X139385044Y-75843238D01*
X139324536Y-75697159D01*
X139228282Y-75571718D01*
X139102841Y-75475464D01*
X138956762Y-75414956D01*
X138956760Y-75414955D01*
X138800001Y-75394318D01*
X138799999Y-75394318D01*
X138643239Y-75414955D01*
X138643237Y-75414956D01*
X138497160Y-75475463D01*
X138371718Y-75571718D01*
X138275463Y-75697160D01*
X138214956Y-75843237D01*
X138214955Y-75843239D01*
X138194318Y-75999998D01*
X137000002Y-75999998D01*
X138000000Y-75000000D01*
X138000000Y-73225247D01*
X141499500Y-73225247D01*
X141499500Y-75864752D01*
X141511131Y-75923229D01*
X141511132Y-75923230D01*
X141555447Y-75989552D01*
X141621769Y-76033867D01*
X141621770Y-76033868D01*
X141680247Y-76045499D01*
X141680250Y-76045500D01*
X141680252Y-76045500D01*
X144319750Y-76045500D01*
X144319751Y-76045499D01*
X144334568Y-76042552D01*
X144378229Y-76033868D01*
X144378229Y-76033867D01*
X144378231Y-76033867D01*
X144444552Y-75989552D01*
X144488867Y-75923231D01*
X144488867Y-75923229D01*
X144488868Y-75923229D01*
X144500499Y-75864752D01*
X144500500Y-75864750D01*
X144500500Y-73225249D01*
X144500499Y-73225247D01*
X144488868Y-73166770D01*
X144488867Y-73166769D01*
X144444552Y-73100447D01*
X144378230Y-73056132D01*
X144378229Y-73056131D01*
X144319752Y-73044500D01*
X144319748Y-73044500D01*
X141680252Y-73044500D01*
X141680247Y-73044500D01*
X141621770Y-73056131D01*
X141621769Y-73056132D01*
X141555447Y-73100447D01*
X141511132Y-73166769D01*
X141511131Y-73166770D01*
X141499500Y-73225247D01*
X138000000Y-73225247D01*
X138000000Y-69464994D01*
X141494357Y-69464994D01*
X141494357Y-69465005D01*
X141514890Y-69712812D01*
X141514892Y-69712824D01*
X141575936Y-69953881D01*
X141675826Y-70181606D01*
X141811833Y-70389782D01*
X141811836Y-70389785D01*
X141980256Y-70572738D01*
X142176491Y-70725474D01*
X142395190Y-70843828D01*
X142630386Y-70924571D01*
X142875665Y-70965500D01*
X143124335Y-70965500D01*
X143369614Y-70924571D01*
X143604810Y-70843828D01*
X143823509Y-70725474D01*
X144019744Y-70572738D01*
X144188164Y-70389785D01*
X144324173Y-70181607D01*
X144424063Y-69953881D01*
X144485108Y-69712821D01*
X144505643Y-69465000D01*
X144491735Y-69297159D01*
X144485109Y-69217187D01*
X144485107Y-69217175D01*
X144424063Y-68976118D01*
X144324173Y-68748393D01*
X144188166Y-68540217D01*
X144166557Y-68516744D01*
X144019744Y-68357262D01*
X143823509Y-68204526D01*
X143823507Y-68204525D01*
X143823506Y-68204524D01*
X143604811Y-68086172D01*
X143604802Y-68086169D01*
X143369616Y-68005429D01*
X143124335Y-67964500D01*
X142875665Y-67964500D01*
X142630383Y-68005429D01*
X142395197Y-68086169D01*
X142395188Y-68086172D01*
X142176493Y-68204524D01*
X141980257Y-68357261D01*
X141811833Y-68540217D01*
X141675826Y-68748393D01*
X141575936Y-68976118D01*
X141514892Y-69217175D01*
X141514890Y-69217187D01*
X141494357Y-69464994D01*
X138000000Y-69464994D01*
X138000000Y-65000000D01*
X137000000Y-64000000D01*
X128051362Y-64000000D01*
X127984323Y-63980315D01*
X127963681Y-63963681D01*
X127036319Y-63036319D01*
X127002834Y-62974996D01*
X127000000Y-62948638D01*
X127000000Y-61107231D01*
X127019685Y-61040192D01*
X127025625Y-61031743D01*
X127028279Y-61028284D01*
X127028282Y-61028282D01*
X127034641Y-61019995D01*
X141194953Y-61019995D01*
X141194953Y-61020004D01*
X141215113Y-61289026D01*
X141215113Y-61289028D01*
X141275142Y-61552033D01*
X141275148Y-61552052D01*
X141373709Y-61803181D01*
X141373708Y-61803181D01*
X141508602Y-62036822D01*
X141562294Y-62104151D01*
X141562295Y-62104151D01*
X142398958Y-61267488D01*
X142423978Y-61327890D01*
X142495112Y-61434351D01*
X142585649Y-61524888D01*
X142692110Y-61596022D01*
X142752510Y-61621041D01*
X141914848Y-62458702D01*
X142097483Y-62583220D01*
X142097485Y-62583221D01*
X142340539Y-62700269D01*
X142340537Y-62700269D01*
X142598337Y-62779790D01*
X142598343Y-62779792D01*
X142865101Y-62819999D01*
X142865110Y-62820000D01*
X143134890Y-62820000D01*
X143134898Y-62819999D01*
X143401656Y-62779792D01*
X143401662Y-62779790D01*
X143659461Y-62700269D01*
X143902521Y-62583218D01*
X144085150Y-62458702D01*
X143247488Y-61621041D01*
X143307890Y-61596022D01*
X143414351Y-61524888D01*
X143504888Y-61434351D01*
X143576022Y-61327890D01*
X143601041Y-61267488D01*
X144437703Y-62104151D01*
X144437704Y-62104150D01*
X144491393Y-62036828D01*
X144491400Y-62036817D01*
X144626290Y-61803181D01*
X144724851Y-61552052D01*
X144724857Y-61552033D01*
X144784886Y-61289028D01*
X144784886Y-61289026D01*
X144805047Y-61020004D01*
X144805047Y-61019995D01*
X144784886Y-60750973D01*
X144784886Y-60750971D01*
X144724857Y-60487966D01*
X144724851Y-60487947D01*
X144626290Y-60236818D01*
X144626291Y-60236818D01*
X144491397Y-60003177D01*
X144437704Y-59935847D01*
X143601041Y-60772510D01*
X143576022Y-60712110D01*
X143504888Y-60605649D01*
X143414351Y-60515112D01*
X143307890Y-60443978D01*
X143247488Y-60418958D01*
X144085150Y-59581296D01*
X143902517Y-59456779D01*
X143902516Y-59456778D01*
X143659460Y-59339730D01*
X143659462Y-59339730D01*
X143401662Y-59260209D01*
X143401656Y-59260207D01*
X143134898Y-59220000D01*
X142865101Y-59220000D01*
X142598343Y-59260207D01*
X142598337Y-59260209D01*
X142340538Y-59339730D01*
X142097485Y-59456778D01*
X142097476Y-59456783D01*
X141914848Y-59581296D01*
X142752511Y-60418958D01*
X142692110Y-60443978D01*
X142585649Y-60515112D01*
X142495112Y-60605649D01*
X142423978Y-60712110D01*
X142398958Y-60772511D01*
X141562295Y-59935848D01*
X141508600Y-60003180D01*
X141373709Y-60236818D01*
X141275148Y-60487947D01*
X141275142Y-60487966D01*
X141215113Y-60750971D01*
X141215113Y-60750973D01*
X141194953Y-61019995D01*
X127034641Y-61019995D01*
X127050742Y-60999011D01*
X127107169Y-60957810D01*
X127149116Y-60950500D01*
X127446142Y-60950500D01*
X127446144Y-60950500D01*
X127535288Y-60926614D01*
X127615212Y-60880470D01*
X128130470Y-60365212D01*
X128176614Y-60285288D01*
X128186203Y-60249500D01*
X128200500Y-60196144D01*
X128200500Y-58746544D01*
X128220185Y-58679505D01*
X128236819Y-58658863D01*
X128560896Y-58334786D01*
X129080470Y-57815212D01*
X129126614Y-57735288D01*
X129150500Y-57646144D01*
X129150500Y-56124000D01*
X129170185Y-56056961D01*
X129222989Y-56011206D01*
X129274500Y-56000000D01*
X133000000Y-56000000D01*
X133060006Y-55939994D01*
X141494357Y-55939994D01*
X141494357Y-55940005D01*
X141514890Y-56187812D01*
X141514892Y-56187824D01*
X141575936Y-56428881D01*
X141675826Y-56656606D01*
X141811833Y-56864782D01*
X141844245Y-56899991D01*
X141980256Y-57047738D01*
X142176491Y-57200474D01*
X142395190Y-57318828D01*
X142630386Y-57399571D01*
X142875665Y-57440500D01*
X143124335Y-57440500D01*
X143369614Y-57399571D01*
X143604810Y-57318828D01*
X143823509Y-57200474D01*
X144019744Y-57047738D01*
X144188164Y-56864785D01*
X144324173Y-56656607D01*
X144424063Y-56428881D01*
X144485108Y-56187821D01*
X144487682Y-56156762D01*
X144505643Y-55940005D01*
X144505643Y-55939994D01*
X144485109Y-55692187D01*
X144485107Y-55692175D01*
X144424063Y-55451118D01*
X144324173Y-55223393D01*
X144188166Y-55015217D01*
X144166557Y-54991744D01*
X144019744Y-54832262D01*
X143823509Y-54679526D01*
X143823507Y-54679525D01*
X143823506Y-54679524D01*
X143604811Y-54561172D01*
X143604802Y-54561169D01*
X143369616Y-54480429D01*
X143124335Y-54439500D01*
X142875665Y-54439500D01*
X142630383Y-54480429D01*
X142395197Y-54561169D01*
X142395188Y-54561172D01*
X142176493Y-54679524D01*
X141980257Y-54832261D01*
X141811833Y-55015217D01*
X141675826Y-55223393D01*
X141575936Y-55451118D01*
X141514892Y-55692175D01*
X141514890Y-55692187D01*
X141494357Y-55939994D01*
X133060006Y-55939994D01*
X136000000Y-53000000D01*
X136000000Y-51051362D01*
X136019685Y-50984323D01*
X136036319Y-50963681D01*
X136140006Y-50859994D01*
X141494357Y-50859994D01*
X141494357Y-50860005D01*
X141514890Y-51107812D01*
X141514892Y-51107824D01*
X141575936Y-51348881D01*
X141675826Y-51576606D01*
X141811833Y-51784782D01*
X141811836Y-51784785D01*
X141980256Y-51967738D01*
X142176491Y-52120474D01*
X142395190Y-52238828D01*
X142630386Y-52319571D01*
X142875665Y-52360500D01*
X143124335Y-52360500D01*
X143369614Y-52319571D01*
X143604810Y-52238828D01*
X143823509Y-52120474D01*
X144019744Y-51967738D01*
X144188164Y-51784785D01*
X144324173Y-51576607D01*
X144424063Y-51348881D01*
X144485108Y-51107821D01*
X144485109Y-51107812D01*
X144505643Y-50860005D01*
X144505643Y-50859994D01*
X144485109Y-50612187D01*
X144485107Y-50612175D01*
X144424063Y-50371118D01*
X144324173Y-50143393D01*
X144188166Y-49935217D01*
X144166557Y-49911744D01*
X144019744Y-49752262D01*
X143823509Y-49599526D01*
X143823507Y-49599525D01*
X143823506Y-49599524D01*
X143604811Y-49481172D01*
X143604802Y-49481169D01*
X143369616Y-49400429D01*
X143124335Y-49359500D01*
X142875665Y-49359500D01*
X142630383Y-49400429D01*
X142395197Y-49481169D01*
X142395188Y-49481172D01*
X142176493Y-49599524D01*
X141980257Y-49752261D01*
X141811833Y-49935217D01*
X141675826Y-50143393D01*
X141575936Y-50371118D01*
X141514892Y-50612175D01*
X141514890Y-50612187D01*
X141494357Y-50859994D01*
X136140006Y-50859994D01*
X138963681Y-48036319D01*
X139025004Y-48002834D01*
X139051362Y-48000000D01*
X143948638Y-48000000D01*
X144015677Y-48019685D01*
G37*
%TD.AperFunction*%
%TD*%
M02*
