%TF.GenerationSoftware,KiCad,Pcbnew,8.0.2*%
%TF.CreationDate,2024-10-13T16:42:59-05:00*%
%TF.ProjectId,Axis_MCU_V3,41786973-5f4d-4435-955f-56332e6b6963,rev?*%
%TF.SameCoordinates,Original*%
%TF.FileFunction,Paste,Top*%
%TF.FilePolarity,Positive*%
%FSLAX46Y46*%
G04 Gerber Fmt 4.6, Leading zero omitted, Abs format (unit mm)*
G04 Created by KiCad (PCBNEW 8.0.2) date 2024-10-13 16:42:59*
%MOMM*%
%LPD*%
G01*
G04 APERTURE LIST*
G04 Aperture macros list*
%AMRoundRect*
0 Rectangle with rounded corners*
0 $1 Rounding radius*
0 $2 $3 $4 $5 $6 $7 $8 $9 X,Y pos of 4 corners*
0 Add a 4 corners polygon primitive as box body*
4,1,4,$2,$3,$4,$5,$6,$7,$8,$9,$2,$3,0*
0 Add four circle primitives for the rounded corners*
1,1,$1+$1,$2,$3*
1,1,$1+$1,$4,$5*
1,1,$1+$1,$6,$7*
1,1,$1+$1,$8,$9*
0 Add four rect primitives between the rounded corners*
20,1,$1+$1,$2,$3,$4,$5,0*
20,1,$1+$1,$4,$5,$6,$7,0*
20,1,$1+$1,$6,$7,$8,$9,0*
20,1,$1+$1,$8,$9,$2,$3,0*%
G04 Aperture macros list end*
%ADD10RoundRect,0.100000X0.637500X0.100000X-0.637500X0.100000X-0.637500X-0.100000X0.637500X-0.100000X0*%
%ADD11RoundRect,0.140000X0.170000X-0.140000X0.170000X0.140000X-0.170000X0.140000X-0.170000X-0.140000X0*%
%ADD12RoundRect,0.150000X0.825000X0.150000X-0.825000X0.150000X-0.825000X-0.150000X0.825000X-0.150000X0*%
%ADD13RoundRect,0.135000X0.185000X-0.135000X0.185000X0.135000X-0.185000X0.135000X-0.185000X-0.135000X0*%
%ADD14RoundRect,0.150000X-0.587500X-0.150000X0.587500X-0.150000X0.587500X0.150000X-0.587500X0.150000X0*%
%ADD15RoundRect,0.135000X0.135000X0.185000X-0.135000X0.185000X-0.135000X-0.185000X0.135000X-0.185000X0*%
%ADD16RoundRect,0.100000X-0.100000X0.637500X-0.100000X-0.637500X0.100000X-0.637500X0.100000X0.637500X0*%
%ADD17RoundRect,0.135000X-0.135000X-0.185000X0.135000X-0.185000X0.135000X0.185000X-0.135000X0.185000X0*%
%ADD18RoundRect,0.140000X0.140000X0.170000X-0.140000X0.170000X-0.140000X-0.170000X0.140000X-0.170000X0*%
%ADD19RoundRect,0.150000X-0.825000X-0.150000X0.825000X-0.150000X0.825000X0.150000X-0.825000X0.150000X0*%
%ADD20RoundRect,0.140000X-0.140000X-0.170000X0.140000X-0.170000X0.140000X0.170000X-0.140000X0.170000X0*%
%ADD21RoundRect,0.135000X-0.185000X0.135000X-0.185000X-0.135000X0.185000X-0.135000X0.185000X0.135000X0*%
%ADD22RoundRect,0.250000X0.350000X0.650000X-0.350000X0.650000X-0.350000X-0.650000X0.350000X-0.650000X0*%
%ADD23RoundRect,0.150000X0.150000X0.625000X-0.150000X0.625000X-0.150000X-0.625000X0.150000X-0.625000X0*%
%ADD24RoundRect,0.100000X-0.637500X-0.100000X0.637500X-0.100000X0.637500X0.100000X-0.637500X0.100000X0*%
%ADD25R,0.900000X1.700000*%
G04 APERTURE END LIST*
D10*
%TO.C,U5*%
X119137500Y-72925000D03*
X119137500Y-72275000D03*
X119137500Y-71625000D03*
X119137500Y-70975000D03*
X119137500Y-70325000D03*
X119137500Y-69675000D03*
X119137500Y-69025000D03*
X119137500Y-68375000D03*
X119137500Y-67725000D03*
X119137500Y-67075000D03*
X124862500Y-67075000D03*
X124862500Y-67725000D03*
X124862500Y-68375000D03*
X124862500Y-69025000D03*
X124862500Y-69675000D03*
X124862500Y-70325000D03*
X124862500Y-70975000D03*
X124862500Y-71625000D03*
X124862500Y-72275000D03*
X124862500Y-72925000D03*
%TD*%
D11*
%TO.C,C1*%
X117200000Y-55920000D03*
X117200000Y-56880000D03*
%TD*%
D12*
%TO.C,U9*%
X130525000Y-70705000D03*
X130525000Y-69435000D03*
X130525000Y-68165000D03*
X130525000Y-66895000D03*
X135475000Y-66895000D03*
X135475000Y-68165000D03*
X135475000Y-69435000D03*
X135475000Y-70705000D03*
%TD*%
D13*
%TO.C,R17*%
X115000000Y-68490000D03*
X115000000Y-69510000D03*
%TD*%
%TO.C,R15*%
X113400000Y-70490000D03*
X113400000Y-71510000D03*
%TD*%
D14*
%TO.C,D1*%
X131937500Y-58000000D03*
X130062500Y-58950000D03*
X130062500Y-57050000D03*
%TD*%
D13*
%TO.C,R3*%
X79800000Y-70290000D03*
X79800000Y-71310000D03*
%TD*%
D15*
%TO.C,R7*%
X124490000Y-65000000D03*
X125510000Y-65000000D03*
%TD*%
D16*
%TO.C,U3*%
X81675000Y-68462500D03*
X81025000Y-68462500D03*
X80375000Y-68462500D03*
X79725000Y-68462500D03*
X79075000Y-68462500D03*
X78425000Y-68462500D03*
X77775000Y-68462500D03*
X77125000Y-68462500D03*
X77125000Y-62737500D03*
X77775000Y-62737500D03*
X78425000Y-62737500D03*
X79075000Y-62737500D03*
X79725000Y-62737500D03*
X80375000Y-62737500D03*
X81025000Y-62737500D03*
X81675000Y-62737500D03*
%TD*%
D13*
%TO.C,R18*%
X113800000Y-65490000D03*
X113800000Y-66510000D03*
%TD*%
D14*
%TO.C,D2*%
X131937500Y-62000000D03*
X130062500Y-62950000D03*
X130062500Y-61050000D03*
%TD*%
D17*
%TO.C,R8*%
X123510000Y-65000000D03*
X122490000Y-65000000D03*
%TD*%
%TO.C,R4*%
X116860000Y-76800000D03*
X117880000Y-76800000D03*
%TD*%
D18*
%TO.C,C4*%
X132320000Y-74200000D03*
X133280000Y-74200000D03*
%TD*%
D19*
%TO.C,U8*%
X82200000Y-78730000D03*
X82200000Y-80000000D03*
X82200000Y-81270000D03*
X82200000Y-82540000D03*
X77250000Y-82540000D03*
X77250000Y-81270000D03*
X77250000Y-80000000D03*
X77250000Y-78730000D03*
%TD*%
D20*
%TO.C,C9*%
X130417500Y-55400000D03*
X129457500Y-55400000D03*
%TD*%
D21*
%TO.C,R16*%
X115000000Y-67510000D03*
X115000000Y-66490000D03*
%TD*%
D12*
%TO.C,U4*%
X130325000Y-79505000D03*
X130325000Y-78235000D03*
X130325000Y-76965000D03*
X130325000Y-75695000D03*
X135275000Y-75695000D03*
X135275000Y-76965000D03*
X135275000Y-78235000D03*
X135275000Y-79505000D03*
%TD*%
D21*
%TO.C,R2*%
X84725000Y-81145000D03*
X84725000Y-80125000D03*
%TD*%
D14*
%TO.C,U7*%
X131875000Y-53050000D03*
X130000000Y-54000000D03*
X130000000Y-52100000D03*
%TD*%
D11*
%TO.C,C2*%
X126600000Y-53600000D03*
X126600000Y-54560000D03*
%TD*%
D13*
%TO.C,R14*%
X114600000Y-73490000D03*
X114600000Y-74510000D03*
%TD*%
D21*
%TO.C,R12*%
X128600000Y-73510000D03*
X128600000Y-72490000D03*
%TD*%
D15*
%TO.C,R6*%
X115380000Y-78000000D03*
X116400000Y-78000000D03*
%TD*%
D21*
%TO.C,R13*%
X114600000Y-72510000D03*
X114600000Y-71490000D03*
%TD*%
D18*
%TO.C,C10*%
X134840000Y-72200000D03*
X135800000Y-72200000D03*
%TD*%
%TO.C,C7*%
X79520000Y-77200000D03*
X80480000Y-77200000D03*
%TD*%
D22*
%TO.C,J1*%
X77700000Y-31525000D03*
X82300000Y-31525000D03*
D23*
X79000000Y-35400000D03*
X80000000Y-35400000D03*
X81000000Y-35400000D03*
%TD*%
D24*
%TO.C,U2*%
X124862500Y-55725000D03*
X124862500Y-56375000D03*
X124862500Y-57025000D03*
X124862500Y-57675000D03*
X124862500Y-58325000D03*
X124862500Y-58975000D03*
X124862500Y-59625000D03*
X124862500Y-60275000D03*
X119137500Y-60275000D03*
X119137500Y-59625000D03*
X119137500Y-58975000D03*
X119137500Y-58325000D03*
X119137500Y-57675000D03*
X119137500Y-57025000D03*
X119137500Y-56375000D03*
X119137500Y-55725000D03*
%TD*%
D21*
%TO.C,R11*%
X127400000Y-70510000D03*
X127400000Y-69490000D03*
%TD*%
D20*
%TO.C,C8*%
X131080000Y-50800000D03*
X130120000Y-50800000D03*
%TD*%
D23*
%TO.C,J4*%
X73000000Y-35400000D03*
X72000000Y-35400000D03*
X71000000Y-35400000D03*
D22*
X74300000Y-31525000D03*
X69700000Y-31525000D03*
%TD*%
D13*
%TO.C,R10*%
X127400000Y-71490000D03*
X127400000Y-72510000D03*
%TD*%
D20*
%TO.C,C5*%
X122480000Y-74200000D03*
X121520000Y-74200000D03*
%TD*%
D25*
%TO.C,SW1*%
X106300000Y-87000000D03*
X109700000Y-87000000D03*
%TD*%
D13*
%TO.C,R1*%
X84725000Y-82325000D03*
X84725000Y-83345000D03*
%TD*%
D15*
%TO.C,R5*%
X119880000Y-76800000D03*
X118860000Y-76800000D03*
%TD*%
D11*
%TO.C,C3*%
X82800000Y-65120000D03*
X82800000Y-66080000D03*
%TD*%
D17*
%TO.C,R9*%
X126710000Y-63800000D03*
X125690000Y-63800000D03*
%TD*%
M02*
