M48
; DRILL file {KiCad 8.0.2} date 2024-10-13T16:43:12-0500
; FORMAT={-:-/ absolute / inch / decimal}
; #@! TF.CreationDate,2024-10-13T16:43:12-05:00
; #@! TF.GenerationSoftware,Kicad,Pcbnew,8.0.2
; #@! TF.FileFunction,MixedPlating,1,4
FMAT,2
INCH
; #@! TA.AperFunction,Plated,PTH,ViaDrill
T1C0.0157
; #@! TA.AperFunction,Plated,PTH,ViaDrill
T2C0.0197
; #@! TA.AperFunction,Plated,PTH,ComponentDrill
T3C0.0394
; #@! TA.AperFunction,Plated,PTH,ComponentDrill
T4C0.0402
; #@! TA.AperFunction,Plated,PTH,ComponentDrill
T5C0.0512
; #@! TA.AperFunction,NonPlated,NPTH,ComponentDrill
T6C0.0591
; #@! TA.AperFunction,NonPlated,NPTH,ComponentDrill
T7C0.0709
; #@! TA.AperFunction,NonPlated,NPTH,ComponentDrill
T8C0.1063
%
G90
G05
T1
X2.8346Y-1.4488
X2.9528Y-1.4646
X2.9685Y-3.252
X3.0157Y-2.4094
X3.0915Y-3.0407
X3.1024Y-2.7638
X3.1496Y-1.4488
X3.2598Y-1.4646
X3.2598Y-2.4724
X3.2992Y-3.1496
X3.4488Y-2.9213
X3.4492Y-3.0083
X4.0157Y-2.5197
X4.0945Y-2.5197
X4.126Y-3.4094
X4.1969Y-2.2992
X4.3701Y-3.4252
X4.4331Y-2.0157
X4.4331Y-2.6929
X4.4409Y-1.9213
X4.4488Y-2.9291
X4.4646Y-2.8661
X4.4803Y-2.6614
X4.5039Y-3.0709
X4.6142Y-2.1654
X4.622Y-2.3386
X4.6457Y-3.0709
X4.6457Y-3.4488
X4.685Y-1.5827
X4.6929Y-2.1654
X4.6929Y-2.5984
X4.6929Y-2.9213
X4.7087Y-3.0709
X4.7244Y-3.3858
X4.811Y-1.5827
X4.9134Y-2.6142
X4.9134Y-2.9213
X4.9843Y-2.074
X4.9843Y-2.2047
X4.9843Y-2.3858
X5.0394Y-2.4409
X5.0472Y-2.8146
X5.063Y-2.3228
X5.063Y-2.4803
X5.063Y-2.7402
X5.0709Y-2.1339
X5.0709Y-2.6299
X5.1732Y-2.189
X5.1732Y-2.9213
X5.1969Y-2.0
X5.2362Y-2.3228
X5.2362Y-2.4803
X5.2362Y-3.0709
X5.2598Y-2.0866
X5.2677Y-2.8425
X5.315Y-2.1654
X5.315Y-2.3228
X5.315Y-2.4803
X5.3937Y-2.0866
X5.3937Y-2.3228
X5.3937Y-2.4803
X5.4094Y-3.1339
X5.4646Y-2.9921
X5.4646Y-3.063
X5.4724Y-2.0079
X5.4724Y-2.2441
X5.4724Y-2.4016
X5.5118Y-2.5591
X5.5118Y-2.7165
X5.5118Y-2.9528
X5.5118Y-3.1496
X5.5906Y-2.5591
X5.6693Y-2.5591
X5.7087Y-2.0079
X5.7087Y-2.2441
X5.7087Y-2.4016
T2
X3.1417Y-2.8504
X3.2362Y-3.0394
X3.2598Y-2.6929
X3.3386Y-3.3228
X4.4252Y-2.8189
X4.4331Y-2.5433
X4.4882Y-2.7323
X4.5039Y-2.9764
X4.5827Y-3.1102
X4.6142Y-2.2835
X4.7559Y-3.0236
X4.7795Y-2.5433
X4.9764Y-2.5591
X5.0315Y-2.685
X5.1102Y-2.8425
X5.3258Y-2.9163
T3
X3.3701Y-1.5126
X3.3701Y-1.6126
X3.3701Y-1.7126
X3.3701Y-1.8126
X3.3701Y-1.9126
X3.3701Y-2.0126
X3.3701Y-2.1126
X3.3701Y-2.2126
X3.3701Y-2.4197
X3.3701Y-2.5197
X3.3701Y-2.6197
X3.3701Y-2.7197
X3.3701Y-2.8197
X3.3701Y-2.9197
X4.6319Y-1.811
X4.7319Y-1.3858
X4.7319Y-1.4858
X4.7319Y-1.811
X4.8319Y-1.3858
X4.8319Y-1.4858
X4.8319Y-1.811
X4.9319Y-1.3858
X4.9319Y-1.4858
X4.9319Y-1.811
X5.0319Y-1.3858
X5.0319Y-1.4858
X5.0319Y-1.811
X5.1319Y-1.811
T4
X3.587Y-1.2941
X3.587Y-1.3941
X3.587Y-1.4941
X3.587Y-1.5941
X3.587Y-1.6941
X3.587Y-1.7941
X3.587Y-1.8941
X3.587Y-1.9941
X3.587Y-2.0941
X3.587Y-2.1941
X3.587Y-2.2941
X3.587Y-2.3941
X3.587Y-2.4941
X3.587Y-2.5941
X3.587Y-2.6941
X3.587Y-2.7941
X3.587Y-2.8941
X3.587Y-2.9941
X3.587Y-3.0941
X3.587Y-3.1941
X3.837Y-3.185
X3.937Y-3.185
X4.037Y-3.185
X4.287Y-1.2941
X4.287Y-1.3941
X4.287Y-1.4941
X4.287Y-1.5941
X4.287Y-1.6941
X4.287Y-1.7941
X4.287Y-1.8941
X4.287Y-1.9941
X4.287Y-2.0941
X4.287Y-2.1941
X4.287Y-2.2941
X4.287Y-2.3941
X4.287Y-2.4941
X4.287Y-2.5941
X4.287Y-2.6941
X4.287Y-2.7941
X4.287Y-2.8941
X4.287Y-2.9941
X4.287Y-3.0941
X4.287Y-3.1941
T5
X2.736Y-1.6622
X2.736Y-1.8622
X2.736Y-2.0622
X2.736Y-2.2622
X2.736Y-2.4622
X2.736Y-2.6622
X2.736Y-2.8622
X2.736Y-3.0622
X5.6299Y-1.8024
X5.6299Y-2.0024
X5.6299Y-2.2024
X5.6299Y-2.4024
X5.6299Y-2.7348
X5.6299Y-2.9348
T6
X3.8415Y-1.4185
X4.0325Y-1.4185
T7
X3.8297Y-1.2992
X4.0443Y-1.2992
T8
X2.5591Y-1.378
X2.5591Y-3.3465
X5.7087Y-1.378
X5.7087Y-3.3465
M30
